<svg width="21" height="17" viewBox="0 0 21 17" fill="none" xmlns="http://www.w3.org/2000/svg">
<path d="M4.5 10.5C4.5 11.332 3.83203 12 3 12C2.16797 12 1.5 11.332 1.5 10.5C1.5 9.66797 2.16797 9 3 9C3.83203 9 4.5 9.66797 4.5 10.5ZM6.75 5.25C6.75 6.08203 6.08203 6.75 5.25 6.75C4.41797 6.75 3.75 6.08203 3.75 5.25C3.75 4.41797 4.41797 3.75 5.25 3.75C6.08203 3.75 6.75 4.41797 6.75 5.25ZM11.7656 10.8867C12.5273 11.4141 12.9258 12.375 12.6797 13.3242C12.3633 14.5195 11.1328 15.2461 9.92578 14.9297C8.73047 14.6133 8.00391 13.3828 8.32031 12.1758C8.57813 11.2266 9.38672 10.582 10.3125 10.5117L11.4961 6.03516C11.6016 5.63672 12.0117 5.39062 12.4102 5.49609C12.8086 5.60156 13.043 6.01172 12.9492 6.41016L11.7656 10.8867ZM19.5 10.5C19.5 11.332 18.832 12 18 12C17.168 12 16.5 11.332 16.5 10.5C16.5 9.66797 17.168 9 18 9C18.832 9 19.5 9.66797 19.5 10.5ZM12 3C12 3.83203 11.332 4.5 10.5 4.5C9.66797 4.5 9 3.83203 9 3C9 2.16797 9.66797 1.5 10.5 1.5C11.332 1.5 12 2.16797 12 3ZM17.25 5.25C17.25 6.08203 16.582 6.75 15.75 6.75C14.918 6.75 14.25 6.08203 14.25 5.25C14.25 4.41797 14.918 3.75 15.75 3.75C16.582 3.75 17.25 4.41797 17.25 5.25ZM21 10.5C21 4.71094 16.2891 -3.57628e-07 10.5 -3.57628e-07C4.71094 -3.57628e-07 0 4.71094 0 10.5C0 12.5156 0.574219 14.4727 1.65234 16.1602C1.79297 16.3711 2.02734 16.5 2.28516 16.5H18.7148C18.9727 16.5 19.207 16.3711 19.3477 16.1602C20.4258 14.4609 21 12.5156 21 10.5Z" fill="#049CF5"/>
</svg>
